<svg
 xmlns="http://www.w3.org/2000/svg"
 xmlns:xlink="http://www.w3.org/1999/xlink"
 width="155px" height="64px">
<path fill-rule="evenodd"  fill="rgb(255, 255, 255)"
 d="M144.078,23.771 C139.163,23.771 135.176,19.783 135.176,14.846 C135.176,9.908 139.163,5.920 144.078,5.920 C149.016,5.920 153.027,9.908 153.027,14.846 C153.027,19.783 149.016,23.771 144.078,23.771 ZM144.078,7.497 C140.021,7.497 136.729,10.789 136.729,14.846 C136.729,18.903 140.021,22.194 144.078,22.194 C148.135,22.194 151.427,18.903 151.427,14.846 C151.427,10.789 148.135,7.497 144.078,7.497 ZM144.217,18.763 C145.492,18.763 146.443,18.253 147.254,17.512 L147.880,18.949 C146.976,19.737 145.747,20.433 144.008,20.433 C141.203,20.433 138.468,18.184 138.468,14.822 C138.468,11.530 141.203,9.259 144.008,9.259 C145.747,9.259 146.976,9.954 147.880,10.742 L147.254,12.156 C146.443,11.438 145.492,10.928 144.217,10.928 C142.061,10.928 140.253,12.620 140.253,14.822 C140.253,17.071 142.061,18.763 144.217,18.763 ZM141.386,49.112 L137.352,49.112 L137.352,63.694 L135.358,63.694 L135.358,49.112 L131.324,49.112 L131.324,47.234 L141.386,47.234 L141.386,49.112 ZM126.015,63.694 L124.021,63.694 L124.021,49.112 L119.987,49.112 L119.987,47.234 L130.049,47.234 L130.049,49.112 L126.015,49.112 L126.015,63.694 ZM116.238,35.129 C119.799,35.129 122.081,33.237 123.194,31.289 L129.203,31.957 C128.369,35.797 123.973,41.194 116.182,41.194 C107.502,41.194 101.659,34.628 101.659,26.392 C101.659,18.546 107.223,11.925 115.737,11.925 C124.418,11.925 129.815,18.825 129.815,26.893 L129.815,28.674 L108.503,28.674 C108.670,32.124 111.286,35.129 116.238,35.129 ZM122.971,23.944 C122.748,20.828 120.022,17.990 115.737,17.990 C111.564,17.990 108.670,20.717 108.503,23.944 L122.971,23.944 ZM106.424,51.500 C106.424,53.007 105.752,54.189 104.570,54.931 C106.193,55.719 107.352,57.203 107.352,59.127 C107.352,62.071 105.196,63.694 101.649,63.694 L96.502,63.694 L96.502,47.234 L101.301,47.234 C104.732,47.234 106.424,49.019 106.424,51.500 ZM98.496,61.816 L101.649,61.816 C104.106,61.816 105.381,60.819 105.381,59.034 C105.381,57.226 104.106,55.974 101.765,55.974 L98.496,55.974 L98.496,61.816 ZM101.301,49.112 L98.496,49.112 L98.496,54.096 L101.301,54.096 C103.364,54.096 104.454,53.331 104.454,51.616 C104.454,50.016 103.364,49.112 101.301,49.112 ZM96.652,18.379 C92.980,18.379 90.976,22.163 90.976,28.117 L90.976,40.638 L84.132,40.638 L84.132,12.481 L90.587,12.481 L90.865,15.542 C92.646,13.371 94.705,11.925 97.042,11.925 C98.655,11.925 99.824,12.537 100.436,13.149 L99.434,19.103 C98.878,18.769 97.765,18.379 96.652,18.379 ZM64.547,41.194 C55.700,41.194 49.412,34.628 49.412,26.559 C49.412,18.491 55.700,11.925 64.547,11.925 C73.339,11.925 79.571,18.491 79.571,26.559 C79.571,34.628 73.339,41.194 64.547,41.194 ZM64.547,18.379 C59.706,18.379 56.256,22.108 56.256,26.559 C56.256,31.011 59.706,34.739 64.547,34.739 C69.333,34.739 72.727,31.011 72.727,26.559 C72.727,22.108 69.333,18.379 64.547,18.379 ZM58.596,50.433 L57.066,51.592 C56.023,50.109 54.400,48.880 52.082,48.880 C48.396,48.880 45.753,51.824 45.753,55.464 C45.753,59.104 48.303,62.048 51.873,62.048 C55.188,62.048 57.507,59.845 58.017,56.762 L51.433,56.762 L51.433,54.884 L60.103,54.884 C60.103,60.309 56.788,63.926 51.873,63.926 C47.167,63.926 43.759,60.077 43.759,55.464 C43.759,50.851 47.167,47.002 52.082,47.002 C54.980,47.002 57.113,48.393 58.596,50.433 ZM41.066,40.638 L34.222,40.638 L34.222,18.936 L29.826,18.936 L29.826,12.481 L34.222,12.481 L34.222,4.134 L41.066,4.134 L41.066,12.481 L47.298,12.481 L47.298,18.936 L41.066,18.936 L41.066,40.638 ZM26.489,30.733 C26.489,37.410 20.869,41.194 13.969,41.194 C5.678,41.194 0.781,35.184 0.614,28.674 L7.459,28.674 C7.681,32.792 10.630,34.739 13.969,34.739 C17.642,34.739 19.645,32.847 19.645,30.510 C19.645,27.338 16.640,25.836 12.133,23.388 C4.175,18.825 1.449,15.987 1.449,10.700 C1.449,4.691 6.624,0.573 13.134,0.573 C20.313,0.573 25.043,5.915 25.209,12.648 L18.365,12.648 C18.198,9.142 16.139,7.028 13.134,7.028 C10.519,7.028 8.293,8.586 8.293,10.979 C8.293,13.983 10.575,15.152 14.581,17.267 C22.093,21.329 26.489,24.723 26.489,30.733 ZM68.844,47.234 L74.778,63.694 L72.715,63.694 L71.255,59.637 L64.184,59.637 L62.723,63.694 L60.660,63.694 L66.595,47.234 L68.844,47.234 ZM70.559,57.759 L67.708,49.831 L64.856,57.759 L70.559,57.759 ZM85.258,57.434 L91.586,47.234 L93.580,47.234 L93.580,63.694 L91.586,63.694 L91.586,50.851 L85.698,60.355 L84.794,60.355 L78.905,50.851 L78.905,63.694 L76.935,63.694 L76.935,47.234 L78.905,47.234 L85.258,57.434 ZM118.225,49.112 L111.386,49.112 L111.386,54.235 L116.672,54.235 L116.672,56.113 L111.386,56.113 L111.386,61.816 L118.225,61.816 L118.225,63.694 L109.416,63.694 L109.416,47.234 L118.225,47.234 L118.225,49.112 ZM148.595,47.234 L154.530,63.694 L152.467,63.694 L151.006,59.637 L143.936,59.637 L142.475,63.694 L140.412,63.694 L146.347,47.234 L148.595,47.234 ZM150.311,57.759 L147.460,49.831 L144.608,57.759 L150.311,57.759 Z"/>
</svg>
